<svg xmlns="http://www.w3.org/2000/svg" width="500" viewBox="0 0 375 375" height="500" version="1.0"><defs><clipPath id="a"><path d="M50.375 91.875h154.836v191.734H50.375zm0 0"/></clipPath><clipPath id="b"><path d="M160.695 91.875l-31.851 113.36-32.215-113.36H50.375l56.535 191.25h41.766l56.535-191.25zm0 0"/></clipPath><clipPath id="c"><path d="M186.293 91.336h138.332v191.828H186.293zm0 0"/></clipPath><clipPath id="d"><path d="M280.543 276.828c9.48-4.273 17.66-10.715 24.176-19.183 6.441-8.254 11.437-18.676 14.84-30.91 3.328-12.016 5.066-26.06 5.066-41.84 0-14.985-1.738-28.305-5.066-39.668-3.403-11.582-8.47-21.43-14.91-29.32-6.59-7.962-14.696-14.114-24.25-18.094-9.34-3.91-19.91-5.938-31.493-5.938h-62.613v191.25h62.613c11.582 0 22.227-2.098 31.637-6.297zm-34.746-142.824c5.137 0 9.77.871 13.75 2.68 3.984 1.738 7.242 4.27 10.062 7.746 2.899 3.547 5.141 8.105 6.735 13.61 1.664 5.718 2.46 12.593 2.46 20.413v12.957c0 8.758-.87 16.504-2.534 22.945-1.59 6.227-3.907 11.368-6.805 15.348-2.82 3.836-6.152 6.66-10.063 8.543-3.98 1.879-8.539 2.895-13.535 2.895h-14.91V134.004zm0 0"/></clipPath></defs><g clip-path="url(#a)"><g clip-path="url(#b)"><path fill="#00d1b2" d="M50.375 91.875h154.836v191.129H50.375zm0 0"/></g></g><g clip-path="url(#c)"><g clip-path="url(#d)"><path fill="#fff" d="M186.293 91.875h138.332v191.29H186.293zm0 0"/></g></g></svg>