<svg xmlns="http://www.w3.org/2000/svg" xmlns:xlink="http://www.w3.org/1999/xlink" width="500" zoomAndPan="magnify" viewBox="0 0 375 374.999991" height="500" preserveAspectRatio="xMidYMid meet" version="1.0"><defs><clipPath id="f34c364633"><path d="M 50.375 91.875 L 205.210938 91.875 L 205.210938 283.609375 L 50.375 283.609375 Z M 50.375 91.875 " clip-rule="nonzero"/></clipPath><clipPath id="60c2ffe12d"><path d="M 160.695312 91.875 L 128.84375 205.234375 L 96.628906 91.875 L 50.375 91.875 L 106.910156 283.125 L 148.675781 283.125 L 205.210938 91.875 Z M 160.695312 91.875 " clip-rule="nonzero"/></clipPath><clipPath id="f4d1929f00"><path d="M 186.292969 91.335938 L 324.625 91.335938 L 324.625 283.164062 L 186.292969 283.164062 Z M 186.292969 91.335938 " clip-rule="nonzero"/></clipPath><clipPath id="5c2fcb6934"><path d="M 280.542969 276.828125 C 290.023438 272.554688 298.203125 266.113281 304.71875 257.644531 C 311.160156 249.390625 316.15625 238.96875 319.558594 226.734375 C 322.886719 214.71875 324.625 200.675781 324.625 184.894531 C 324.625 169.910156 322.886719 156.589844 319.558594 145.226562 C 316.15625 133.644531 311.089844 123.796875 304.648438 115.90625 C 298.058594 107.945312 289.953125 101.792969 280.398438 97.8125 C 271.058594 93.902344 260.488281 91.875 248.90625 91.875 L 186.292969 91.875 L 186.292969 283.125 L 248.90625 283.125 C 260.488281 283.125 271.132812 281.027344 280.542969 276.828125 Z M 245.796875 134.003906 C 250.933594 134.003906 255.566406 134.875 259.546875 136.683594 C 263.53125 138.421875 266.789062 140.953125 269.609375 144.429688 C 272.507812 147.976562 274.75 152.535156 276.34375 158.039062 C 278.007812 163.757812 278.804688 170.632812 278.804688 178.453125 L 278.804688 191.410156 C 278.804688 200.167969 277.933594 207.914062 276.269531 214.355469 C 274.679688 220.582031 272.363281 225.722656 269.464844 229.703125 C 266.644531 233.539062 263.3125 236.363281 259.402344 238.246094 C 255.421875 240.125 250.863281 241.140625 245.867188 241.140625 L 230.957031 241.140625 L 230.957031 134.003906 Z M 245.796875 134.003906 " clip-rule="nonzero"/></clipPath></defs><g clip-path="url(#f34c364633)"><g clip-path="url(#60c2ffe12d)"><path fill="#00d1b2" d="M 50.375 91.875 L 205.210938 91.875 L 205.210938 283.003906 L 50.375 283.003906 Z M 50.375 91.875 " fill-opacity="1" fill-rule="nonzero"/></g></g><g clip-path="url(#f4d1929f00)"><g clip-path="url(#5c2fcb6934)"><path fill="#ffffff" d="M 186.292969 91.875 L 324.625 91.875 L 324.625 283.164062 L 186.292969 283.164062 Z M 186.292969 91.875 " fill-opacity="1" fill-rule="nonzero"/></g></g></svg>